<?xml version="1.0" standalone="no"?>
<!DOCTYPE svg PUBLIC "-//W3C//DTD SVG 20010904//EN"
 "http://www.w3.org/TR/2001/REC-SVG-20010904/DTD/svg10.dtd">
<svg version="1.0" xmlns="http://www.w3.org/2000/svg"
 width="277.000000pt" height="265.000000pt" viewBox="0 0 277.000000 265.000000"
 preserveAspectRatio="xMidYMid meet">
<metadata>
Created by potrace 1.16, written by Peter Selinger 2001-2019
</metadata>
<g transform="translate(0.000000,265.000000) scale(0.100000,-0.100000)"
fill="#000000" stroke="none">
<path d="M1172 2527 c-67 -67 -122 -127 -122 -132 0 -6 61 -71 135 -145 l135
-135 137 138 138 137 -130 130 c-81 81 -137 130 -150 130 -13 0 -66 -46 -143
-123z"/>
<path d="M397 1742 c-218 -218 -397 -402 -397 -407 0 -6 119 -129 265 -275
l265 -265 130 130 130 130 125 -125 125 -125 -126 -126 c-70 -70 -125 -132
-123 -138 7 -19 510 -531 522 -531 18 0 797 783 797 800 0 8 -59 74 -130 145
l-130 130 -265 -265 -265 -265 -125 125 -125 125 520 520 c286 286 520 527
520 535 0 8 -60 74 -132 147 l-133 133 -527 -527 -528 -528 -125 125 -125 125
260 260 c143 143 260 265 260 270 0 6 -60 70 -133 143 l-132 132 -398 -398z"/>
<path d="M2242 1477 c-72 -73 -132 -137 -132 -142 0 -6 60 -70 133 -143 l132
-132 133 133 c72 73 132 137 132 142 0 6 -60 70 -133 143 l-132 132 -133 -133z"/>
</g>
</svg>
