<?xml version="1.0" encoding="utf-8"?>
<!-- Generator: Adobe Illustrator 16.0.0, SVG Export Plug-In . SVG Version: 6.00 Build 0)  -->
<svg version="1.2" baseProfile="tiny" id="Layer_1" xmlns="http://www.w3.org/2000/svg" xmlns:xlink="http://www.w3.org/1999/xlink"
	 x="0px" y="0px" width="800px" height="800px" viewBox="0 0 800 800" xml:space="preserve">
<path fill="#2D2D2D" d="M658.17,141.828C589.212,72.87,497.524,34.885,400.004,34.885c-97.526,0-189.221,37.984-258.184,106.942
	C72.862,210.79,34.888,302.483,34.888,400.011c0,97.526,37.975,189.213,106.932,258.167
	c68.963,68.963,160.658,106.938,258.184,106.938c97.521,0,189.208-37.975,258.166-106.938
	c68.964-68.963,106.942-160.641,106.942-258.167C765.112,302.483,727.134,210.79,658.17,141.828 M656.688,656.691
	C588.124,725.254,496.966,763.02,400.004,763.02c-96.967,0-188.128-37.766-256.697-106.328
	C74.748,588.127,36.991,496.969,36.991,400.011c0-96.97,37.757-188.128,106.316-256.697
	C211.876,74.751,303.037,36.991,400.004,36.991c96.962,0,188.12,37.76,256.684,106.323
	c68.563,68.569,106.324,159.727,106.324,256.697C763.012,496.969,725.251,588.127,656.688,656.691"/>
<path fill="#2D2D2D" d="M141.313,400.031c0,69.661,27.126,135.161,76.38,184.413c49.265,49.262,114.757,76.389,184.421,76.389
	c69.666,0,135.155-27.127,184.413-76.389c49.262-49.252,76.387-114.752,76.387-184.413c0-69.664-27.125-135.148-76.387-184.415
	c-49.258-49.263-114.747-76.388-184.413-76.388c-69.665,0-135.156,27.125-184.421,76.388
	C168.439,264.873,141.313,330.367,141.313,400.031 M402.115,141.333c69.102,0,134.063,26.907,182.926,75.77
	c48.862,48.863,75.773,113.823,75.773,182.928c0,69.092-26.911,134.063-75.773,182.926
	c-48.863,48.863-113.829,75.779-182.926,75.779c-69.104,0-134.069-26.916-182.935-75.779
	c-48.854-48.863-75.773-113.834-75.773-182.926c0-69.105,26.919-134.065,75.773-182.928
	C268.046,168.24,333.012,141.333,402.115,141.333"/>
<polygon fill="#2D2D2D" points="91.508,413.635 105.108,400.031 91.508,386.426 77.91,400.031 "/>
<rect x="698.873" y="390.413" transform="matrix(0.7071 -0.7071 0.7071 0.7071 -75.3397 618.1884)" fill="#2D2D2D" width="19.239" height="19.235"/>
<path fill="#2D2D2D" d="M79.656,457.656l14.583-2.955l3.321,16.357c0.098,0.5,0.27,0.619,0.766,0.52l0.889-0.189
	c0.452-0.09,0.619-0.27,0.517-0.768l-3.321-16.367l14.091-2.855l3.758,18.543c0.092,0.439,0.279,0.609,0.731,0.52l0.888-0.18
	c0.489-0.1,0.598-0.33,0.506-0.77l-4.095-20.229c-0.092-0.439-0.269-0.559-0.766-0.459l-33.818,6.855
	c-0.494,0.102-0.611,0.281-0.522,0.719l4.242,20.918c0.087,0.449,0.267,0.57,0.761,0.459l0.89-0.168
	c0.45-0.1,0.562-0.27,0.475-0.719L79.656,457.656z"/>
<path fill="#2D2D2D" d="M101.183,509.912c7.398-2.355,6.447-8.832,5.272-14.859c-1.108-5.629-1.941-11.238,3.735-13.045
	c4.616-1.467,8.448,1.287,10.424,7.477c1.717,5.389,0.644,9.012-2.944,12.533c-0.357,0.379-0.31,0.52-0.025,0.908l0.716,0.779
	c0.282,0.389,0.576,0.449,0.926,0.068c4.301-4.121,5.486-8.521,3.443-14.959c-2.433-7.645-7.542-10.879-13.404-9.021
	c-7.444,2.375-6.376,9.24-5.191,15.469c1.027,5.389,1.901,10.619-3.766,12.414c-5.1,1.627-8.712-1.076-10.93-8.053
	c-1.702-5.33-0.522-9.461,3.66-13.123c0.41-0.34,0.419-0.51,0.138-0.889l-0.634-0.809c-0.336-0.42-0.562-0.459-0.98-0.121
	c-4.993,4.143-6.445,8.883-4.304,15.621C89.985,508.664,94.934,511.898,101.183,509.912"/>
<path fill="#2D2D2D" d="M118.564,527.518l19.962,4.521c0.419,0.09,0.679-0.07,0.454-0.59l-0.454-1.008
	c-0.302-0.699-0.481-0.838-1.038-0.967l-19.498-4.352l-0.517-1.158l-2.544-5.719l14.568-6.477c0.461-0.211,0.531-0.41,0.354-0.828
	l-0.452-1.008c-0.182-0.42-0.381-0.49-0.848-0.291l-31.522,14.043c-0.464,0.209-0.537,0.408-0.347,0.818l0.444,1.008
	c0.185,0.42,0.389,0.498,0.854,0.299l15.017-6.697l2.607,5.85c1.727,3.873,1.148,6.178-1.198,9.102l-8.358,10.131
	c-0.312,0.408-0.302,0.668,0.03,1.416l0.41,0.918c0.189,0.42,0.506,0.389,0.741,0.061l8.875-10.969
	C118.292,532.996,119.17,530.611,118.564,527.518"/>
<path fill="#2D2D2D" d="M143.681,539.844l-0.532-0.979c-0.214-0.4-0.416-0.459-0.857-0.221l-30.363,16.389
	c-0.444,0.238-0.501,0.449-0.292,0.848l0.526,0.969c0.22,0.408,0.424,0.469,0.871,0.229l30.357-16.387
	C143.835,540.451,143.896,540.242,143.681,539.844"/>
<path fill="#2D2D2D" d="M147.898,535.441l-0.22,0.131c-0.848,0.447-0.95,0.797-0.514,1.586l0.122,0.23
	c0.429,0.797,0.838,0.918,1.634,0.488l0.225-0.119c0.843-0.459,0.926-0.838,0.492-1.646l-0.123-0.221
	C149.085,535.092,148.741,534.992,147.898,535.441"/>
<path fill="#2D2D2D" d="M141.443,568.725c-2.565-5.189-4.815-10.348,0.187-13.572c4.075-2.625,8.499-0.979,11.999,4.451
	c3.062,4.75,3.004,8.563,0.459,12.904c-0.245,0.459-0.162,0.59,0.215,0.889l0.896,0.549c0.376,0.309,0.644,0.26,0.914-0.16
	c3.076-5.1,3.076-9.66-0.611-15.389c-4.324-6.697-10.127-8.533-15.305-5.189c-6.572,4.23-3.72,10.607-0.961,16.277
	c2.428,4.98,4.634,9.801-0.369,13.023c-4.497,2.895-8.69,1.229-12.655-4.92c-3.037-4.711-2.986-9.002,0.09-13.633
	c0.317-0.439,0.252-0.639-0.097-0.898l-0.836-0.648c-0.423-0.279-0.643-0.25-0.96,0.189c-3.65,5.23-3.89,10.07-0.287,15.85
	l-4.364,0.957c-0.536,0.109-0.663,0.369-0.307,0.738c0.47,0.359,0.874,0.879,1.252,1.467c1.175,1.826,1.18,3.334-0.179,4.201
	c-1.774,1.148-3.633,0.6-4.998-1.516c-1.145-1.787-1.161-3.104-1.073-4.182c-0.005-0.289-0.22-0.33-0.429-0.189l-0.521,0.389
	c-0.342,0.219-0.445,0.34-0.395,0.799c0.023,0.947,0.277,2.465,1.37,4.16c1.744,2.715,4.294,3.773,6.982,2.166
	c1.999-1.178,2.292-3.412,0.828-5.699c-0.307-0.467-0.681-0.947-1.019-1.207l3.648-0.857c4.631,6.617,9.99,8.152,15.29,4.73
	C146.735,580.193,144.151,574.234,141.443,568.725"/>
<path fill="#2D2D2D" d="M142.372,599.535l11.577-9.354l10.492,12.994c0.317,0.391,0.526,0.41,0.926,0.092l0.704-0.57
	c0.352-0.289,0.415-0.529,0.093-0.928l-10.492-12.984l11.188-9.031l11.884,14.721c0.287,0.35,0.531,0.408,0.883,0.129l0.706-0.578
	c0.4-0.32,0.385-0.568,0.098-0.918l-12.965-16.049c-0.284-0.359-0.499-0.379-0.888-0.061l-26.842,21.688
	c-0.394,0.311-0.418,0.529-0.132,0.879l13.414,16.605c0.285,0.34,0.499,0.371,0.888,0.051l0.711-0.568
	c0.351-0.279,0.376-0.5,0.084-0.859L142.372,599.535z"/>
<path fill="#2D2D2D" d="M204.393,617.648l-0.749-0.748c-0.366-0.35-0.581-0.35-0.933,0.01l-11.169,11.297l-15.141-14.961
	l11.176-11.297c0.347-0.359,0.347-0.578,0.024-0.889l-0.783-0.777c-0.322-0.32-0.542-0.32-0.894,0.039l-24.251,24.531
	c-0.352,0.35-0.352,0.568-0.025,0.898l0.787,0.779c0.321,0.309,0.536,0.309,0.89-0.051l11.522-11.656l15.14,14.969l-11.522,11.658
	c-0.361,0.348-0.356,0.568,0.006,0.928l0.75,0.738c0.322,0.32,0.571,0.35,0.925,0l24.252-24.541
	C204.754,618.217,204.715,617.967,204.393,617.648"/>
<path fill="#2D2D2D" d="M217.876,619.764c-0.701-0.578-1.053-0.559-1.666,0.18l-0.16,0.189c-0.621,0.738-0.592,1.098,0.103,1.678
	l0.195,0.17c0.696,0.578,1.125,0.537,1.706-0.16l0.16-0.189c0.619-0.74,0.551-1.129-0.15-1.707L217.876,619.764z"/>
<path fill="#2D2D2D" d="M213.915,625.592l-0.854-0.719c-0.35-0.289-0.564-0.27-0.891,0.121l-22.167,26.438
	c-0.321,0.389-0.297,0.609,0.045,0.898l0.848,0.709c0.35,0.299,0.564,0.268,0.891-0.111l22.166-26.447
	C214.275,626.092,214.256,625.881,213.915,625.592"/>
<path fill="#2D2D2D" d="M234.371,641.242l-11.789-8.395c-0.367-0.27-0.576-0.229-0.869,0.18l-20.02,28.105
	c-0.297,0.408-0.262,0.617,0.107,0.877l0.908,0.648c0.37,0.26,0.58,0.23,0.871-0.178l8.753-12.287l6.779,4.83
	c3.451,2.455,4.167,4.752,3.588,8.434l-1.799,11.479c-0.055,0.518,0.047,0.719,0.701,1.186l0.829,0.59
	c0.411,0.289,0.663,0.1,0.663-0.34l1.859-12.426c0.337-2.305,0.122-4.002-0.976-5.768c4.706,2.793,9.556,1.977,12.922-2.744
	C240.613,650.213,239.588,644.955,234.371,641.242 M234.887,653.996c-2.924,4.102-6.961,4.641-11.068,1.717l-10.23-7.285
	l9.129-12.824l10.23,7.295C237.14,645.881,237.814,649.883,234.887,653.996"/>
<path fill="#2D2D2D" d="M279.663,669.154l0.415-0.797c0.229-0.459,0.157-0.658-0.247-0.869l-22.233-11.346
	c-0.409-0.201-0.606-0.141-0.838,0.309l-0.412,0.809c-0.209,0.408-0.145,0.607,0.259,0.818l10.113,5.16l-15.002,29.381
	c-0.23,0.449-0.158,0.648,0.245,0.857l0.945,0.48c0.444,0.23,0.653,0.168,0.885-0.281l14.99-29.391l10.067,5.139
	C279.254,669.625,279.454,669.566,279.663,669.154"/>
<path fill="#2D2D2D" d="M306.076,677.959l-19.234-7.477c-0.419-0.158-0.614-0.08-0.798,0.4l-12.493,32.156
	c-0.18,0.469-0.098,0.668,0.321,0.826l19.893,7.725c0.424,0.172,0.624,0.08,0.806-0.389l0.322-0.848
	c0.17-0.42,0.077-0.617-0.347-0.779l-18.284-7.105l5.392-13.871l15.559,6.047c0.472,0.18,0.664,0.09,0.849-0.389l0.327-0.84
	c0.165-0.418,0.103-0.658-0.372-0.846l-15.559-6.049l5.2-13.395l17.634,6.848c0.419,0.16,0.669,0.1,0.829-0.33l0.327-0.838
	C306.627,678.338,306.498,678.117,306.076,677.959"/>
<path fill="#2D2D2D" d="M326.655,683.277c-8.625-2.316-14.381,1.047-16.367,8.453l-3.204,11.938
	c-2.003,7.455,1.444,13.293,9.928,15.559c7.742,2.076,12.095-0.141,15.232-5.201c0.272-0.449,0.185-0.688-0.215-0.947l-0.833-0.588
	c-0.405-0.27-0.624-0.221-0.883,0.178c-2.76,4.432-6.265,6.209-12.74,4.473c-7.111-1.916-9.845-6.717-8.216-12.814l3.229-12.027
	c1.632-6.088,6.297-8.852,13.505-6.926c6.285,1.688,8.59,4.762,8.713,9.951c0.062,0.549,0.262,0.598,0.721,0.619l1.01-0.041
	c0.482-0.08,0.671-0.189,0.609-0.729C337.022,689.186,334.16,685.293,326.655,683.277"/>
<path fill="#2D2D2D" d="M371.81,692.51l-1.053-0.16c-0.497-0.061-0.671,0.068-0.741,0.559l-2.285,15.729l-21.063-3.064l2.28-15.717
	c0.073-0.5-0.051-0.68-0.501-0.738l-1.103-0.162c-0.444-0.059-0.619,0.07-0.697,0.561l-4.95,34.143
	c-0.072,0.508,0.055,0.678,0.506,0.736l1.098,0.162c0.449,0.068,0.624-0.063,0.688-0.561l2.36-16.227l21.063,3.063l-2.35,16.219
	c-0.083,0.508,0.047,0.678,0.552,0.748l1.042,0.15c0.458,0.07,0.671-0.061,0.746-0.559l4.958-34.143
	C372.431,692.748,372.254,692.57,371.81,692.51"/>
<path fill="#2D2D2D" d="M407.823,693.996l-1.008-0.029c-0.459-0.01-0.609,0.129-0.619,0.59l-0.519,22.742
	c-0.085,3.482,0.194,6.877,0.14,9.043h-0.145c-1.178-1.695-2.63-4.563-4.432-7.275l-16.826-25.26
	c-0.145-0.15-0.297-0.359-0.701-0.369l-1.058-0.021c-0.45-0.01-0.609,0.131-0.619,0.641l-0.786,34.49
	c-0.015,0.51,0.132,0.668,0.586,0.678l1.009,0.012c0.506,0.02,0.658-0.131,0.668-0.639l0.542-23.494
	c0.072-3.184-0.157-6.406-0.113-8.324h0.103c1.023,1.488,2.32,4.244,3.935,6.648l17.263,25.928c0.25,0.359,0.399,0.41,0.754,0.42
	l1.003,0.02c0.504,0.01,0.659-0.139,0.679-0.639l0.788-34.492C408.477,694.156,408.327,694.006,407.823,693.996"/>
<path fill="#2D2D2D" d="M420.224,693.238l-1.113,0.068c-0.458,0.021-0.594,0.191-0.563,0.689l2.021,34.441
	c0.035,0.5,0.189,0.639,0.645,0.619l1.112-0.07c0.454-0.02,0.594-0.18,0.56-0.688l-2.026-34.441
	C420.833,693.348,420.673,693.219,420.224,693.238"/>
<path fill="#2D2D2D" d="M459.739,715.584l-0.998-0.211c-0.474-0.09-0.658,0.041-0.748,0.51c-0.813,5.148-3.354,8.154-9.999,9.072
	c-7.302,1.008-11.678-2.365-12.541-8.613l-1.702-12.334c-0.868-6.25,2.355-10.611,9.741-11.639
	c6.452-0.877,9.766,1.047,11.896,5.799c0.279,0.469,0.474,0.439,0.918,0.279l0.903-0.43c0.419-0.26,0.544-0.438,0.284-0.908
	c-2.435-5.469-6.602-7.943-14.292-6.885c-8.842,1.217-12.844,6.555-11.796,14.15l1.691,12.246
	c1.059,7.645,6.497,11.678,15.189,10.479c7.939-1.098,11.099-4.84,12.012-10.729C460.389,715.854,460.209,715.672,459.739,715.584"
	/>
<path fill="#2D2D2D" d="M476.427,684.674c-0.27-0.408-0.494-0.498-0.983-0.379l-0.928,0.24c-0.449,0.109-0.648,0.32-0.688,0.797
	l-4.905,37.238c-0.056,0.379,0.06,0.607,0.594,0.469l0.833-0.221c0.729-0.18,0.898-0.33,0.983-0.818l1.542-11.895l16.228-4.154
	l7.061,9.711c0.255,0.389,0.529,0.43,1.263,0.24l0.879-0.221c0.538-0.139,0.573-0.408,0.289-0.697L476.427,684.674z M473.073,708.02
	l2.51-19.123c0.05-1.008-0.14-1.947-0.154-2.197l0.154-0.039c0.105,0.23,0.439,1.129,0.988,2.035l11.357,15.529L473.073,708.02z"/>
<path fill="#2D2D2D" d="M527.725,703.377c-0.155-0.428-0.354-0.529-0.778-0.357l-17.216,6.377l-11.467-30.939
	c-0.175-0.469-0.365-0.559-0.794-0.398l-1.043,0.379c-0.424,0.158-0.519,0.359-0.339,0.828l11.991,32.355
	c0.17,0.471,0.369,0.559,0.793,0.408l18.828-6.975c0.429-0.16,0.514-0.359,0.339-0.83L527.725,703.377z"/>
<path fill="#2D2D2D" d="M555.714,651.6c-0.244-0.438-0.449-0.508-0.893-0.258l-0.929,0.518c-0.399,0.211-0.499,0.439-0.254,0.889
	l11.123,20.182c3.147,5.707,2.08,11.076-4.417,14.658c-6.447,3.555-11.606,1.607-14.746-4.08l-11.133-20.191
	c-0.244-0.438-0.454-0.498-0.848-0.289l-0.979,0.539c-0.394,0.221-0.453,0.43-0.214,0.867l11.138,20.191
	c3.771,6.848,10.01,9.172,17.819,4.861c7.834-4.313,9.236-10.85,5.464-17.697L555.714,651.6z"/>
<path fill="#2D2D2D" d="M585.14,631.031c-0.304-0.408-0.509-0.439-0.923-0.148l-0.813,0.588c-0.368,0.27-0.398,0.479-0.135,0.848
	l13.329,18.443c2.04,2.824,4.307,5.35,5.573,7.105l-0.124,0.09c-1.951-0.639-4.841-2.035-7.914-3.113l-28.678-9.959
	c-0.216-0.041-0.449-0.121-0.779,0.119l-0.854,0.619c-0.368,0.279-0.403,0.488-0.109,0.896l20.22,27.965
	c0.284,0.41,0.494,0.439,0.868,0.182l0.818-0.59c0.41-0.301,0.439-0.51,0.15-0.92l-13.772-19.051
	c-1.867-2.574-3.997-5.02-5.125-6.578l0.08-0.059c1.716,0.568,4.416,1.977,7.155,2.924l29.437,10.23
	c0.404,0.141,0.559,0.088,0.843-0.119l0.818-0.59c0.41-0.289,0.444-0.508,0.149-0.908L585.14,631.031z"/>
<path fill="#2D2D2D" d="M594.492,622.908c-0.324-0.379-0.539-0.4-0.884-0.109l-0.843,0.729c-0.35,0.289-0.365,0.508-0.036,0.887
	l22.456,26.209c0.319,0.379,0.539,0.398,0.884,0.1l0.843-0.719c0.35-0.289,0.359-0.51,0.035-0.889L594.492,622.908z"/>
<path fill="#2D2D2D" d="M620.67,597.787c-0.14-0.35-0.389-0.469-0.714-0.139l-0.679,0.668c-0.494,0.51-0.608,0.758-0.395,1.188
	l12.615,28.385c0.569,1.217,1.353,2.504,1.607,3.184l-0.075,0.068c-0.645-0.289-1.956-1.037-3.209-1.566l-28.389-12.645
	c-0.424-0.209-0.639-0.141-1.167,0.398l-0.674,0.67c-0.324,0.328-0.255,0.607,0.105,0.748l34.052,14.959
	c0.35,0.221,0.633,0.141,0.958-0.18l0.713-0.717c0.324-0.311,0.395-0.6,0.185-1.029L620.67,597.787z"/>
<path fill="#2D2D2D" d="M665.805,597.068l-0.713-0.578c-0.345-0.279-0.56-0.26-0.849,0.09l-12.33,15.26l-11.567-9.352l10.484-12.984
	c0.324-0.389,0.304-0.598-0.091-0.918l-0.707-0.568c-0.35-0.289-0.604-0.299-0.924,0.1l-10.495,12.975l-11.172-9.033l11.881-14.711
	c0.295-0.35,0.3-0.607-0.05-0.887l-0.708-0.58c-0.395-0.309-0.635-0.25-0.929,0.109l-12.964,16.039
	c-0.284,0.359-0.265,0.568,0.13,0.879l26.831,21.686c0.396,0.32,0.608,0.301,0.89-0.049l13.401-16.598
	C666.215,597.598,666.195,597.379,665.805,597.068"/>
<path fill="#2D2D2D" d="M686.733,565.631l-12.506-1.268c-2.315-0.219-4.001,0.07-5.719,1.248c2.566-4.83,1.527-9.641-3.353-12.773
	c-5.389-3.463-10.589-2.188-14.053,3.203l-7.829,12.176c-0.25,0.379-0.199,0.588,0.229,0.857l29.017,18.664
	c0.426,0.279,0.636,0.229,0.874-0.15l0.604-0.938c0.245-0.381,0.2-0.59-0.225-0.859l-12.689-8.164l4.507-6.996
	c2.285-3.572,4.555-4.391,8.253-3.99l11.552,1.256c0.52,0.031,0.72-0.09,1.152-0.768l0.545-0.848
	C687.367,565.861,687.162,565.611,686.733,565.631 M666.054,565.891l-6.785,10.57l-13.24-8.514l6.787-10.559
	c2.784-4.332,6.752-5.201,11.003-2.467C668.062,557.648,668.783,561.648,666.054,565.891"/>
<path fill="#2D2D2D" d="M695.251,529.244c-6.966-3.434-10.772,1.896-14.097,7.057c-3.108,4.82-6.402,9.441-11.747,6.814
	c-4.337-2.145-5.198-6.775-2.324-12.613c2.5-5.07,5.777-6.936,10.813-6.996c0.519-0.02,0.583-0.16,0.644-0.629l0.015-1.068
	c0.075-0.469-0.085-0.719-0.609-0.699c-5.953,0-9.859,2.336-12.854,8.404c-3.549,7.195-2.105,13.074,3.412,15.799
	c7.018,3.453,10.994-2.236,14.461-7.555c2.994-4.602,5.995-8.973,11.329-6.338c4.8,2.365,5.528,6.826,2.295,13.383
	c-2.48,5.02-6.184,7.195-11.731,6.926c-0.55-0.039-0.659,0.07-0.729,0.551l-0.101,1.018c-0.039,0.539,0.091,0.719,0.634,0.758
	c6.452,0.479,10.799-1.936,13.913-8.273C702.457,537.918,701.136,532.139,695.251,529.244"/>
<path fill="#2D2D2D" d="M708.186,520.74l-32.057-12.773c-0.463-0.189-0.658-0.111-0.832,0.318l-0.416,1.029
	c-0.164,0.418-0.078,0.619,0.39,0.797l32.052,12.785c0.469,0.189,0.664,0.1,0.833-0.318l0.414-1.029
	C708.735,521.131,708.654,520.93,708.186,520.74"/>
<path fill="#2D2D2D" d="M716.015,498.605l-31.438-10.002l3.419-10.756c0.14-0.441,0.034-0.631-0.394-0.77l-0.864-0.27
	c-0.479-0.15-0.669-0.051-0.813,0.379l-7.561,23.793c-0.14,0.439-0.039,0.629,0.439,0.777l0.869,0.27
	c0.433,0.141,0.618,0.041,0.758-0.389l3.438-10.818l31.437,10c0.484,0.15,0.675,0.051,0.814-0.379l0.319-1.008
	C716.589,498.945,716.499,498.754,716.015,498.605"/>
<path fill="#2D2D2D" d="M724.607,465.121l-13.742-2.814l-17.316-17.494c-0.313-0.279-0.629-0.24-0.723,0.209l-0.249,1.236
	c-0.145,0.74-0.13,0.9,0.304,1.289l15.351,15.35l-20.146,8.084c-0.56,0.199-0.635,0.328-0.794,1.066l-0.265,1.289
	c-0.08,0.449,0.19,0.607,0.58,0.479l22.688-9.252l13.849,2.834c0.494,0.1,0.673-0.02,0.769-0.469l0.213-1.078
	C725.222,465.4,725.102,465.221,724.607,465.121"/>
<path fill="#2D2D2D" d="M78.648,345.966l32.021,6.607c1.579,0.319,2.248-0.075,2.583-1.707l4.52-21.896
	c0.328-1.587-0.122-2.271-1.706-2.59l-4.656-0.962c-1.639-0.335-2.263,0.12-2.59,1.701l-2.881,13.972l-4.91-1.018l2.223-10.794
	c0.346-1.636-0.103-2.31-1.739-2.655l-4.551-0.933c-1.643-0.339-2.321,0.11-2.658,1.742l-2.223,10.798l-4.606-0.948l2.787-13.509
	c0.336-1.636-0.063-2.305-1.702-2.644l-4.601-0.948c-1.589-0.325-2.263,0.114-2.604,1.761l-4.417,21.428
	C76.602,345.008,77.054,345.642,78.648,345.966"/>
<path fill="#2D2D2D" d="M94.043,315.727c9.636,3.138,13.283-4.681,16.022-10.214c1.513-3.129,2.852-5.555,4.84-4.906
	c2.137,0.694,2.171,2.959,1.083,6.283c-0.906,2.785-2.434,4.431-4.461,4.76c-1.696,0.325-2.061,0.918-2.048,2.571l0.167,5.225
	c0.072,1.607,0.644,2.235,2.29,2.23c5.779-0.21,10-4.552,12.411-11.941c2.867-8.798,1.003-16.712-6.3-19.092
	c-9.386-3.064-13.209,3.937-15.881,9.431c-1.614,3.433-3.013,6.223-5.152,5.524c-1.736-0.564-2.145-2.181-1.044-5.559
	c0.751-2.291,2.023-3.853,4.239-4.227c1.682-0.275,2.056-0.753,1.917-2.34l-0.532-5.614c-0.113-1.682-0.724-2.326-2.39-2.096
	c-5.529,0.784-9.074,4.236-11.473,11.577C84.639,306.829,87.49,313.591,94.043,315.727"/>
<path fill="#2D2D2D" d="M98.461,275.821l29.688,13.713c1.473,0.674,2.204,0.444,2.915-1.073l2.468-5.354
	c0.706-1.521,0.399-2.235-1.068-2.919l-10.906-5.04l0.4-0.848c0.823-1.797,2.008-2.116,3.919-2.151l10.395-0.209
	c2.039-0.036,2.759-0.744,3.922-3.254l2.368-5.12c0.719-1.562-0.165-2.375-1.759-2.3l-14.746,0.779
	c-1.999,0.109-3.608,0.464-5.03,1.188l-9.714-14.97c-0.883-1.322-1.961-1.243-2.62,0.185l-2.515,5.449
	c-1.12,2.42-1.048,3.024,0,4.606l7.66,11.821l-0.175,0.379l-0.357,0.644l-10.526-4.865c-1.473-0.679-2.213-0.449-2.912,1.073
	l-2.474,5.354C96.69,274.429,96.992,275.137,98.461,275.821"/>
<path fill="#2D2D2D" d="M114.916,241.858l28.559,16.348c1.354,0.778,2.068,0.579,2.846-0.779l3.034-5.304
	c0.789-1.357,0.589-2.076-0.771-2.85l-28.558-16.348c-1.36-0.778-2.077-0.583-2.852,0.779l-3.037,5.304
	C113.361,240.366,113.556,241.08,114.916,241.858"/>
<path fill="#2D2D2D" d="M107.723,236.543l0.364,0.205c2.632,1.502,3.842,1.173,5.344-1.452l0.16-0.274
	c1.532-2.675,1.175-3.842-1.457-5.344l-0.357-0.209c-2.638-1.502-3.823-1.223-5.352,1.457l-0.153,0.264
	C104.771,233.825,105.098,235.037,107.723,236.543"/>
<path fill="#2D2D2D" d="M130.984,231.259c8.329,5.769,14.067-0.684,18.276-5.204c2.315-2.516,4.299-4.452,6.015-3.259
	c1.849,1.278,1.258,3.409-0.766,6.333c-1.667,2.406-3.598,3.538-5.606,3.234c-1.717-0.18-2.243,0.285-2.705,1.876l-1.332,5.051
	c-0.419,1.611-0.052,2.375,1.555,2.793c5.165,1.353,10.137-1.052,14.352-6.586l2.096,3.488c0.633,1.013,1.14,1.107,1.706,0.289
	l0.594-0.858c1.025-1.388,1.546-1.592,2.195-1.153c0.559,0.394,0.722,1.072-0.025,2.145c-0.716,1.028-1.385,1.458-2.277,1.921
	c-1.197,0.624-1.086,1.283-0.267,1.847l1.833,1.208c0.644,0.444,1.135,0.474,2.106-0.195c1.13-0.809,1.984-1.866,2.705-2.894
	c2.079-3.009,3.288-6.682,0.162-9.417c-2.14-1.866-4.978-1.796-6.689,0.58l-0.296,0.423l-1.088-1.637
	c3.516-6.721,3.139-13.333-2.355-17.141c-8.119-5.623-13.817,0.021-17.924,4.487c-2.555,2.869-4.696,5.139-6.546,3.857
	c-1.502-1.038-1.396-2.75,0.593-5.629c1.4-2.016,3.077-3.148,5.272-2.829c1.691,0.219,2.183-0.141,2.505-1.692l1.127-5.578
	c0.35-1.602-0.024-2.435-1.721-2.65c-5.512-0.838-9.908,1.457-14.312,7.815C124.515,220.037,125.316,227.322,130.984,231.259"/>
<path fill="#2D2D2D" d="M146.568,194.502l24.664,21.473c1.218,1.063,1.999,1.053,3.097-0.215l14.681-16.856
	c1.067-1.228,1.008-2.036-0.214-3.099l-3.585-3.119c-1.262-1.103-2.036-1.008-3.099,0.209l-9.358,10.758l-3.783-3.298l7.235-8.308
	c1.098-1.268,1.043-2.067-0.219-3.174l-3.506-3.049c-1.262-1.093-2.076-1.038-3.169,0.219l-7.24,8.313l-3.541-3.089l9.054-10.404
	c1.093-1.257,1.078-2.031-0.185-3.128l-3.545-3.084c-1.217-1.068-2.028-1.013-3.126,0.25l-14.369,16.506
	C145.253,192.667,145.346,193.439,146.568,194.502"/>
<path fill="#2D2D2D" d="M191.873,192.547c1.098,1.183,1.869,1.267,3.101,0.139l4.364-3.982c1.226-1.127,1.226-1.906,0.137-3.099
	l-8.133-8.912l7.475-6.832l8.139,8.907c1.087,1.193,1.901,1.233,3.134,0.1l4.363-3.977c1.196-1.093,1.23-1.901,0.137-3.104
	l-22.048-24.132c-1.098-1.204-1.906-1.238-3.106-0.146l-4.354,3.977c-1.233,1.128-1.268,1.942-0.18,3.139l7.787,8.523l-7.484,6.832
	l-7.782-8.518c-1.093-1.197-1.866-1.273-3.102-0.14l-4.354,3.978c-1.238,1.127-1.238,1.9-0.14,3.093L191.873,192.547z"/>
<path fill="#2D2D2D" d="M199.583,142.231l19.943,26.173c0.951,1.248,1.682,1.348,2.922,0.395l4.865-3.703
	c1.247-0.948,1.345-1.682,0.399-2.934l-19.945-26.168c-0.949-1.247-1.684-1.342-2.932-0.394l-4.861,3.702
	C198.734,140.251,198.632,140.984,199.583,142.231"/>
<path fill="#2D2D2D" d="M195.286,134.866c1.829,2.411,3.082,2.58,5.486,0.739l0.252-0.195c2.453-1.861,2.581-3.074,0.739-5.484
	l-0.25-0.33c-1.838-2.41-3.039-2.61-5.486-0.744l-0.257,0.185c-2.411,1.847-2.576,3.084-0.741,5.5L195.286,134.866z"/>
<path fill="#2D2D2D" d="M232.335,158.324c0.868,1.372,1.619,1.578,3.024,0.679l4.997-3.153c1.405-0.894,1.542-1.657,0.679-3.029
	l-5.414-8.559l1.01-0.643c1.814-1.148,3.037-0.869,4.738,0.154l6.652,4.267c1.727,1.068,3.056,1.028,5.397-0.454l4.773-3.015
	c1.449-0.923,1.147-2.085-0.228-2.889l-8.743-5.04c-0.8-0.479-1.589-0.854-2.395-1.143c1.941-3.573,1.722-7.825-0.981-12.101
	c-4.328-6.847-11.053-7.91-17.722-3.693l-12.58,7.955c-1.415,0.893-1.549,1.662-0.681,3.019L232.335,158.324z M232.013,128.005
	c1.894-1.203,3.608-0.744,4.755,1.067c1.141,1.807,0.808,3.627-1.043,4.795l-4.765,3.024l-3.715-5.874L232.013,128.005z"/>
<path fill="#2D2D2D" d="M256.949,111.039c0.684,1.521,1.367,1.792,2.891,1.113l7.114-3.174l10.504,23.563
	c0.663,1.481,1.37,1.797,2.898,1.113l5.39-2.401c1.521-0.679,1.769-1.417,1.115-2.899l-10.511-23.573l7.103-3.159
	c1.527-0.688,1.796-1.372,1.113-2.894l-1.911-4.296c-0.658-1.482-1.365-1.792-2.892-1.113l-23.618,10.528
	c-1.527,0.674-1.769,1.417-1.108,2.895L256.949,111.039z"/>
<path fill="#2D2D2D" d="M299.619,123.04c0.499,1.542,1.17,1.926,2.765,1.417l21.283-6.847c1.537-0.493,1.911-1.217,1.415-2.759
	l-1.458-4.526c-0.506-1.586-1.214-1.911-2.764-1.412l-13.571,4.366l-1.534-4.775l10.491-3.378c1.59-0.509,1.961-1.232,1.453-2.82
	l-1.417-4.431c-0.516-1.586-1.235-1.961-2.829-1.447l-10.497,3.373l-1.435-4.476l13.126-4.217c1.594-0.514,1.976-1.192,1.466-2.779
	l-1.442-4.471c-0.492-1.547-1.214-1.921-2.809-1.407l-20.833,6.702c-1.59,0.514-1.912,1.212-1.415,2.759L299.619,123.04z"/>
<path fill="#2D2D2D" d="M329.414,113.699c0.314,1.586,0.943,2.04,2.585,1.716l5.789-1.168c1.637-0.329,2.029-0.998,1.717-2.58
	l-2.371-11.777l0.916-0.184c1.947-0.395,2.902,0.375,4.063,1.901l6.3,8.269c1.233,1.607,2.218,1.787,4.94,1.238l5.529-1.118
	c1.691-0.334,1.819-1.532,0.823-2.774l-9.336-11.438c-1.272-1.557-2.502-2.634-3.929-3.363l6.337-16.677
	c0.556-1.492-0.142-2.315-1.682-2l-5.886,1.183c-2.612,0.528-3.066,0.938-3.714,2.725l-5.023,13.158l-0.404,0.076l-0.73,0.094
	l-2.283-11.368c-0.327-1.582-0.956-2.046-2.593-1.716l-5.788,1.162c-1.634,0.34-2.029,1.003-1.712,2.59L329.414,113.699z"/>
<path fill="#2D2D2D" d="M363.472,107.126c0.122,1.612,0.688,2.15,2.355,2.021l5.258-0.409c1.666-0.129,2.203-0.744,2.073-2.36
	l-0.654-8.483c-0.454-5.828-1.287-8.488-2.759-13.304l0.415-0.024c1.764,4.521,2.836,6.896,5.407,10.314l8.977,11.771
	c0.526,0.693,1.125,0.963,2.218,0.878l5.883-0.458c1.614-0.12,2.141-0.739,2.017-2.351l-2.523-32.6
	c-0.117-1.612-0.741-2.141-2.351-2.011l-5.309,0.409c-1.667,0.13-2.151,0.739-2.019,2.355l0.664,8.593
	c0.405,5.26,1.283,7.755,3.358,12.939l-0.419,0.03c-1.916-3.778-2.539-5.774-5.104-9.137l-9.571-12.72
	c-0.531-0.693-1.125-0.963-2.275-0.874l-6.141,0.475c-1.667,0.13-2.14,0.744-2.018,2.355L363.472,107.126z"/>
<path fill="#2D2D2D" d="M402.668,107.201l6.104,0.1c1.571,0.03,2.101-0.484,2.126-2.051l0.544-32.905
	c0.02-1.572-0.494-2.095-2.066-2.125l-6.103-0.099c-1.567-0.031-2.097,0.483-2.126,2.056l-0.534,32.904
	C400.588,106.647,401.097,107.182,402.668,107.201"/>
<path fill="#2D2D2D" d="M418.911,107.446l5.868,0.583c1.672,0.16,2.245-0.358,2.405-1.976l1.173-11.952l0.938,0.09
	c1.98,0.194,2.66,1.207,3.328,3.009l3.603,9.741c0.699,1.917,1.602,2.365,4.361,2.639l5.614,0.554
	c1.716,0.17,2.195-0.938,1.602-2.42l-5.584-13.667c-0.764-1.856-1.621-3.254-2.77-4.372l10.943-14.087
	c0.958-1.273,0.534-2.261-1.022-2.41l-5.984-0.589c-2.653-0.259-3.198,0-4.351,1.518l-8.644,11.107l-0.418-0.035l-0.729-0.125
	l1.137-11.547c0.155-1.607-0.304-2.226-1.97-2.395l-5.869-0.574c-1.667-0.164-2.251,0.359-2.399,1.966l-3.204,32.545
	C416.786,106.662,417.249,107.286,418.911,107.446"/>
<path fill="#2D2D2D" d="M491.077,79.586l0.35,0.094c2.835,0.729,3.877,0.025,4.571-2.649l0.174-0.654
	c0.704-2.734,0.12-3.802-2.714-4.536l-0.354-0.089c-2.824-0.739-3.957-0.115-4.676,2.615l-0.165,0.659
	C487.564,77.705,488.238,78.848,491.077,79.586"/>
<path fill="#2D2D2D" d="M480.154,76.751l0.404,0.105c2.829,0.734,3.972,0.06,4.67-2.62l0.17-0.659
	c0.709-2.725,0.015-3.822-2.804-4.561l-0.41-0.105c-2.778-0.723-3.816-0.064-4.516,2.66l-0.18,0.659
	C476.801,74.911,477.37,76.023,480.154,76.751"/>
<path fill="#2D2D2D" d="M475.669,117.351c10.005,2.6,16.626-1.507,18.821-9.955l5.35-20.629c0.409-1.562,0.05-2.25-1.571-2.67
	l-5.714-1.481c-1.622-0.419-2.271,0.005-2.675,1.571l-5.459,21.028c-0.773,2.989-2.974,4.197-6.462,3.289
	c-3.488-0.898-4.775-3.014-3.997-5.998l5.449-21.034c0.403-1.566-0.005-2.27-1.622-2.689l-5.709-1.487
	c-1.566-0.399-2.271,0.015-2.68,1.577l-5.344,20.629C461.861,107.945,465.703,114.771,475.669,117.351"/>
<path fill="#2D2D2D" d="M498.038,122.98l4.896,1.951c1.552,0.619,2.301,0.29,2.895-1.207l3.164-7.909
	c2.155-5.425,2.574-8.184,3.378-13.154l0.395,0.16c-0.414,4.835-0.499,7.445,0.294,11.646l2.874,14.521
	c0.17,0.854,0.59,1.352,1.603,1.762l5.483,2.19c1.502,0.594,2.251,0.274,2.845-1.228l12.102-30.364
	c0.608-1.502,0.284-2.25-1.218-2.85l-4.951-1.976c-1.547-0.619-2.25-0.279-2.844,1.228l-3.188,8.004
	c-1.956,4.896-2.28,7.53-2.694,13.088l-0.39-0.154c-0.055-4.236,0.265-6.297-0.554-10.449l-2.984-15.634
	c-0.165-0.858-0.578-1.357-1.652-1.791l-5.723-2.281c-1.553-0.614-2.251-0.275-2.85,1.232l-12.105,30.354
	C496.212,121.637,496.481,122.356,498.038,122.98"/>
<path fill="#2D2D2D" d="M552.451,103.574l0.278,0.145c2.745,1.392,3.893,0.978,5.266-1.727l0.189-0.364
	c1.377-2.699,1.037-3.867-1.707-5.264l-0.284-0.146c-2.705-1.377-3.893-0.987-5.27,1.712l-0.19,0.379
	C549.361,101.008,549.751,102.191,552.451,103.574"/>
<path fill="#2D2D2D" d="M531.961,137.505l5.439,2.775c1.402,0.709,2.105,0.479,2.819-0.918l14.921-29.321
	c0.708-1.398,0.479-2.101-0.924-2.81l-5.439-2.774c-1.396-0.708-2.096-0.484-2.814,0.918l-14.925,29.326
	C530.335,136.099,530.564,136.797,531.961,137.505"/>
<path fill="#2D2D2D" d="M554.637,150.026l5.528,3.468c1.287,0.808,2.025,0.897,3.278-0.105l27.371-21.932
	c1.183-0.918,1.268-1.727-0.11-2.595l-4.95-3.103c-2.171-1.362-3.144-1.288-4.361-0.14l-13.712,12.545
	c-2.415,2.181-4.482,5.085-4.482,5.085l-0.394-0.244c0,0,1.672-3.269,2.595-6.328l5.25-17.794c0.544-1.567,0.145-2.495-2.116-3.913
	l-5.045-3.164c-1.327-0.838-2.12-0.464-2.415,1.008l-7.825,34.307C552.925,148.524,553.349,149.218,554.637,150.026"/>
<path fill="#2D2D2D" d="M576.408,164.507l17.475,13.947c1.268,1.008,2.071,0.918,3.079-0.35l2.969-3.712
	c1.043-1.307,0.924-2.076-0.349-3.084l-11.144-8.897l3.129-3.917l8.607,6.876c1.313,1.042,2.116,0.943,3.164-0.359l2.899-3.627
	c1.044-1.307,0.948-2.111-0.354-3.159l-8.613-6.877l2.936-3.672l10.778,8.603c1.297,1.043,2.075,0.993,3.123-0.319l2.929-3.677
	c1.009-1.257,0.924-2.061-0.384-3.109l-17.11-13.647c-1.313-1.048-2.071-0.928-3.079,0.344l-20.399,25.549
	C575.046,162.691,575.105,163.464,576.408,164.507"/>
<path fill="#2D2D2D" d="M600.345,184.193l4.172,4.177c1.183,1.178,1.962,1.138,3.104,0l7.165-7.167l0.849,0.849
	c1.512,1.512,1.512,2.764,0.888,4.651l-2.699,7.425c-0.664,1.916-0.33,3.214,1.627,5.169l3.992,3.987
	c1.207,1.218,2.28,0.664,2.765-0.848l2.994-9.646c0.294-0.878,0.479-1.727,0.583-2.576c3.923,1.098,8.02-0.04,11.603-3.623
	c5.724-5.729,5.284-12.524-0.3-18.099l-10.523-10.519c-1.183-1.183-1.957-1.153-3.109,0l-23.109,23.108
	C599.192,182.237,599.157,183.01,600.345,184.193 M625.864,170.121l3.981,3.992c1.593,1.587,1.518,3.349,0,4.866
	c-1.517,1.517-3.358,1.591-4.91,0.044l-3.986-3.992L625.864,170.121z"/>
<path fill="#2D2D2D" d="M642.562,209.313c1.766,2.995,3.044,5.444,1.402,6.747c-1.762,1.392-3.663,0.165-5.834-2.59
	c-1.816-2.285-2.335-4.471-1.481-6.337c0.669-1.596,0.369-2.225-1.013-3.134l-4.438-2.754c-1.387-0.829-2.221-0.704-3.123,0.679
	c-3.039,4.925-1.762,10.838,3.068,16.941c5.729,7.256,13.354,10.084,19.381,5.33c7.746-6.124,4.038-13.179,0.938-18.449
	c-1.971-3.243-3.507-5.953-1.751-7.34c1.442-1.137,3.009-0.583,5.22,2.205c1.487,1.887,2.076,3.813,1.162,5.859
	c-0.697,1.562-0.509,2.135,0.893,2.898l4.966,2.665c1.462,0.838,2.341,0.684,3.069-0.828c2.421-5.035,1.497-9.9-3.288-15.968
	c-6.183-7.83-13.389-9.192-18.803-4.92C634.981,196.594,639.472,203.968,642.562,209.313"/>
<path fill="#2D2D2D" d="M645.041,236.509l3.362,5.1c0.864,1.313,1.588,1.457,2.896,0.598l27.471-18.113
	c1.302-0.869,1.456-1.586,0.588-2.899l-3.358-5.105c-0.868-1.297-1.586-1.452-2.894-0.588l-27.476,18.114
	C644.322,234.478,644.178,235.202,645.041,236.509"/>
<path fill="#2D2D2D" d="M679.802,217.407c1.692,2.57,2.89,2.779,5.425,1.113l0.349-0.229c2.525-1.672,2.814-2.859,1.112-5.43
	l-0.179-0.265c-1.668-2.529-2.889-2.774-5.415-1.113l-0.354,0.23c-2.529,1.672-2.779,2.899-1.111,5.429L679.802,217.407z"/>
<path fill="#2D2D2D" d="M682.471,229.668l-4.121,2.245c-1.468,0.809-1.671,1.521-0.873,2.984l3.737,6.826l-22.635,12.385
	c-1.417,0.769-1.671,1.507-0.868,2.975l2.829,5.174c0.81,1.472,1.558,1.652,2.979,0.878l22.63-12.385l3.737,6.821
	c0.798,1.472,1.507,1.677,2.979,0.874l4.121-2.251c1.418-0.778,1.673-1.517,0.868-2.984l-12.405-22.674
	C684.647,229.074,683.89,228.889,682.471,229.668"/>
<path fill="#2D2D2D" d="M668.685,278.296l8.557,20.654c0.614,1.497,1.362,1.806,2.854,1.188l4.402-1.821
	c1.536-0.638,1.806-1.367,1.182-2.874l-5.459-13.164l4.637-1.916l4.217,10.175c0.639,1.547,1.387,1.861,2.934,1.217l4.297-1.776
	c1.541-0.644,1.856-1.393,1.212-2.939l-4.228-10.18l4.352-1.796l5.28,12.735c0.639,1.547,1.343,1.876,2.89,1.232l4.336-1.801
	c1.497-0.619,1.813-1.373,1.167-2.91l-8.377-20.214c-0.639-1.542-1.373-1.807-2.865-1.192l-30.209,12.515
	C668.365,276.05,668.04,276.754,668.685,278.296"/>
<path fill="#2D2D2D" d="M704.299,296.58c-9.73,2.804-8.368,11.322-7.526,17.44c0.511,3.443,0.76,6.192-1.247,6.776
	c-2.16,0.619-3.457-1.232-4.426-4.59c-0.809-2.809-0.469-5.035,1.022-6.438c1.219-1.228,1.184-1.921,0.25-3.284l-3.074-4.222
	c-0.962-1.296-1.781-1.492-3.139-0.559c-4.671,3.408-5.719,9.372-3.568,16.846c2.565,8.883,8.554,14.382,15.935,12.251
	c9.48-2.735,8.713-10.668,7.828-16.722c-0.583-3.737-0.986-6.831,1.169-7.449c1.756-0.51,3.003,0.598,3.986,4.006
	c0.668,2.311,0.489,4.322-1.137,5.879c-1.238,1.167-1.279,1.776-0.265,3.004l3.588,4.346c1.042,1.337,1.905,1.521,3.158,0.394
	c4.136-3.748,5.129-8.598,2.984-16.023C717.073,298.65,710.925,294.668,704.299,296.58"/>
<path fill="#2D2D2D" d="M736.294,334.05l-0.068-0.31c-0.58-2.974-1.627-3.672-4.597-3.084l-0.41,0.08
	c-2.973,0.584-3.672,1.632-3.087,4.601l0.063,0.305c0.595,3.029,1.622,3.672,4.591,3.089l0.419-0.08
	C736.175,338.067,736.884,337.074,736.294,334.05"/>
<path fill="#2D2D2D" d="M725.167,332.992c-0.305-1.537-0.914-1.952-2.45-1.647l-32.292,6.357c-1.541,0.295-1.944,0.914-1.641,2.456
	l1.178,5.988c0.304,1.547,0.918,1.957,2.454,1.647l32.286-6.348c1.537-0.304,1.952-0.923,1.646-2.46L725.167,332.992z"/>
<polygon fill="#9B000A" points="440.568,237.726 400.004,197.162 359.427,237.726 400.004,278.291 "/>
<rect x="533.584" y="371.313" transform="matrix(0.7071 -0.7071 0.7071 0.7071 -118.1566 514.7474)" fill="#9B000A" width="57.375" height="57.375"/>
<polygon fill="#9B000A" points="440.568,481.139 400.004,521.699 359.427,481.139 400.004,440.57 440.568,400 481.132,359.435 
	521.706,318.865 481.132,278.296 440.568,318.865 400.004,359.435 359.427,400 318.861,440.57 359.427,481.139 318.861,521.699 
	359.427,562.279 400.004,602.848 440.563,562.279 481.127,521.699 521.701,481.139 481.132,440.57 "/>
<polygon fill="#9B000A" points="318.861,359.435 359.427,318.865 318.866,278.296 278.298,318.865 237.725,359.435 197.157,400 
	237.725,440.57 278.298,481.139 318.861,440.57 278.298,400 "/>
<path fill="#2D2D2D" d="M404.011,64.771l0.278,0.145c2.745,1.391,3.893,0.978,5.266-1.728l0.189-0.364
	c1.377-2.699,1.037-3.867-1.707-5.264l-0.284-0.146c-2.705-1.377-3.893-0.987-5.27,1.712l-0.19,0.379
	C400.921,62.205,401.311,63.388,404.011,64.771"/>
</svg>
